<svg width="24" height="25" viewBox="0 0 24 25" fill="none" xmlns="http://www.w3.org/2000/svg">
<path d="M1.80615 17.6753H7.24462V24.4734H1.80615V17.6753ZM16.7619 17.6753H22.2004V24.4734H16.7619V17.6753Z" fill="#FFDC5D"/>
<path d="M22.2004 19.5239C22.2004 19.5239 20.161 20.8835 16.7619 20.2037V16.8047H22.2004V19.5239ZM1.80615 19.5239C1.80615 19.5239 3.84558 20.8835 7.24462 20.2037V16.8047H1.80615V19.5239Z" fill="#F9CA55"/>
<path d="M2.47461 12.6465H7.91307V18.085H2.47461V12.6465ZM16.0864 12.3066H21.5249V17.7451H16.0864V12.3066Z" fill="#EF9645"/>
<path d="M0.0204204 8.04552C0.0204204 8.04552 0.0224599 7.21276 0.854545 7.21479C1.68799 7.21751 1.68527 8.05028 1.68527 8.05028L1.67235 11.9143C1.80492 11.8531 1.9436 11.7981 2.08908 11.7505L2.10607 6.38747C2.10607 6.38747 2.10879 5.5547 2.9402 5.55742C3.77228 5.55946 3.77024 6.39291 3.77024 6.39291L3.75597 11.4371C3.89125 11.4248 4.03061 11.4153 4.17065 11.4085L4.18968 5.56082C4.18968 5.56082 4.19172 4.72806 5.02449 4.73146C5.85725 4.73417 5.85385 5.56694 5.85385 5.56694L5.83482 11.4133C5.97758 11.4214 6.1149 11.4357 6.25222 11.4486L6.26922 5.98366C6.26922 5.98366 6.27194 5.1509 7.10334 5.1543C7.93543 5.15634 7.93203 5.98842 7.93203 5.98842L7.91571 11.7675L7.91367 12.2304V12.6458C5.41606 12.6397 3.74441 14.7138 3.73693 16.7953C3.73693 17.2114 4.15297 17.2141 4.15297 17.2141C4.15977 14.7138 5.83006 13.0571 8.32835 13.0645L9.55269 10.2175C9.55269 10.2175 9.82121 9.42961 10.6105 9.69949C11.3977 9.96598 11.1305 10.7552 11.1305 10.7552L10.5235 12.866C10.2828 13.7049 10.0578 14.5492 9.9395 15.4112C9.60096 17.8477 7.50511 19.7212 4.97758 19.7144C2.22096 19.7029 -0.00881133 17.4609 2.61795e-05 14.7042C0.000705988 14.5588 0.0095435 14.4201 0.0231397 14.2896L0.0013858 14.2868L0.0204204 8.04552V8.04552ZM23.9796 8.04552C23.9796 8.04552 23.9775 7.21276 23.1455 7.21479C22.312 7.21751 22.314 8.05028 22.314 8.05028L22.327 11.9143C22.1951 11.8531 22.0557 11.7981 21.9109 11.7505L21.8939 6.38747C21.8939 6.38747 21.8912 5.5547 21.0598 5.55742C20.227 5.55946 20.2291 6.39291 20.2291 6.39291L20.244 11.4371C20.1094 11.4248 19.9701 11.4153 19.8293 11.4085L19.811 5.56082C19.811 5.56082 19.8083 4.72806 18.9755 4.73146C18.1427 4.73417 18.1461 5.56694 18.1461 5.56694L18.1652 11.4133C18.0224 11.4214 17.8851 11.4357 17.7478 11.4486L17.7308 5.98366C17.7308 5.98366 17.7274 5.1509 16.896 5.1543C16.0639 5.15634 16.0673 5.98842 16.0673 5.98842L16.0836 11.7675L16.0856 12.2304V12.6458C18.5833 12.6397 20.2549 14.7138 20.2631 16.7953C20.2631 17.2114 19.847 17.2141 19.847 17.2141C19.8395 14.7138 18.1693 13.0571 15.6716 13.0645L14.4473 10.2175C14.4473 10.2175 14.1795 9.42961 13.3895 9.69949C12.603 9.96598 12.8695 10.7552 12.8695 10.7552L13.4765 12.866C13.7172 13.7049 13.9422 14.5492 14.0605 15.4112C14.399 17.8477 16.4942 19.7212 19.0224 19.7144C21.779 19.7029 24.0095 17.4609 24 14.7042C23.9993 14.5588 23.9905 14.4201 23.9769 14.2896L23.9986 14.2868L23.9796 8.04552V8.04552Z" fill="#FFDC5D"/>
<path d="M15.7702 4.3902C15.6254 4.3902 15.4786 4.34397 15.3555 4.2488C15.0578 4.01903 15.0034 3.59211 15.2331 3.29503L17.2583 0.67437C17.486 0.377973 17.9143 0.320869 18.2114 0.552004C18.5091 0.781779 18.5635 1.2087 18.3337 1.50577L16.3086 4.12644C16.1754 4.29979 15.9741 4.3902 15.7702 4.3902V4.3902ZM8.27871 4.3902C8.07544 4.3902 7.87422 4.29911 7.7403 4.12576L5.71515 1.50577C5.48605 1.2087 5.54112 0.781779 5.83819 0.552004C6.13527 0.322909 6.56151 0.377293 6.79196 0.67437L8.81711 3.29503C9.04621 3.59211 8.99182 4.01903 8.69475 4.2488C8.57034 4.34465 8.42418 4.3902 8.27871 4.3902V4.3902ZM12.0034 4.07885C11.6281 4.07885 11.3236 3.77429 11.3236 3.39904V0.679808C11.3236 0.304554 11.6281 0 12.0034 0C12.3793 0 12.6832 0.304554 12.6832 0.679808V3.39904C12.6832 3.77429 12.3793 4.07885 12.0034 4.07885Z" fill="#5DADEC"/>
</svg>
