<svg width="61" height="64" viewBox="0 0 61 64" fill="none" xmlns="http://www.w3.org/2000/svg">
<g clip-path="url(#clip0)">
<path d="M11.352 11.3717C11.3588 12.0085 11.22 12.6385 10.9463 13.2136C10.6839 13.7649 10.3152 14.259 9.8613 14.6674C9.40295 15.0767 8.87275 15.3976 8.29754 15.6138C7.70304 15.8402 7.0719 15.9549 6.43578 15.9524L0 15.9325V-0.000236713H5.73577C6.38906 -0.00631878 7.03869 0.0979222 7.65728 0.308091C8.22641 0.501123 8.75128 0.805813 9.20113 1.20431C9.64333 1.60184 9.99326 2.09125 10.2264 2.63825C10.4796 3.24003 10.6052 3.88779 10.5952 4.54058C10.5947 5.14077 10.4585 5.73309 10.1969 6.27326C9.9456 6.8119 9.58633 7.29318 9.14138 7.68729C9.48224 7.85692 9.79456 8.07866 10.0671 8.34451C10.3375 8.60754 10.5718 8.90517 10.7642 9.22966C10.9559 9.55268 11.1032 9.90002 11.2023 10.2623C11.3017 10.6238 11.3521 10.9969 11.352 11.3717ZM7.54811 4.60033C7.5565 4.25533 7.48054 3.91351 7.32683 3.60454C7.18461 3.33106 6.98298 3.09288 6.73673 2.90748C6.48249 2.71733 6.19545 2.57556 5.88993 2.48925C5.56632 2.39564 5.23101 2.3487 4.89414 2.34984H3.08696V6.73133C3.41889 6.7446 3.71763 6.75124 3.98317 6.75124H4.89783C5.2334 6.7524 5.56785 6.71227 5.89362 6.63175C6.19687 6.5591 6.484 6.43079 6.74041 6.25335C6.98678 6.08176 7.189 5.85427 7.33051 5.58948C7.48426 5.28302 7.55905 4.94302 7.54811 4.60033V4.60033ZM8.14559 11.1925C8.14892 10.877 8.08426 10.5646 7.95602 10.2764C7.83671 10.0062 7.66061 9.76494 7.43968 9.56897C7.21707 9.37449 6.96052 9.22271 6.68288 9.12123C6.38588 9.01293 6.07181 8.95896 5.75569 8.9619C5.30426 8.94863 4.85947 8.94543 4.42132 8.95231C3.98317 8.9592 3.53839 8.9624 3.08696 8.9619V13.3633H5.3972C5.73268 13.3629 6.06693 13.3228 6.39299 13.2438C6.70961 13.1707 7.00981 13.0391 7.27814 12.8558C7.53478 12.6792 7.74915 12.448 7.90586 12.1787C8.07211 11.8772 8.15415 11.5366 8.14338 11.1925H8.14559Z" fill="white"/>
<path d="M60.2329 55.5953C60.2372 56.5073 60.0847 57.4133 59.7822 58.2736C59.4857 59.113 59.0518 59.8972 58.498 60.5942L60.0913 62.1676L58.2612 63.9998L56.6281 62.3468C55.9407 62.8166 55.1896 63.1854 54.3975 63.4422C53.5678 63.7108 52.7005 63.8453 51.8284 63.8405C50.7097 63.848 49.6011 63.6277 48.5703 63.1929C47.5777 62.7765 46.6729 62.1758 45.9038 61.4226C45.1407 60.6732 44.5287 59.7843 44.101 58.804C43.6595 57.7923 43.4355 56.6991 43.4438 55.5953C43.4365 54.489 43.6603 53.3933 44.101 52.3786C44.5269 51.3942 45.139 50.5015 45.9038 49.7497C46.6735 48.9962 47.5791 48.3955 48.5725 47.9794C49.6029 47.5448 50.7109 47.3244 51.8291 47.3317C52.9504 47.3251 54.0614 47.5454 55.0953 47.9794C56.0928 48.3937 57.0021 48.9946 57.7744 49.7497C58.5392 50.5015 59.1513 51.3942 59.5771 52.3786C60.0174 53.3934 60.2407 54.4891 60.2329 55.5953V55.5953ZM57.2256 55.5953C57.2293 54.8826 57.0836 54.177 56.7978 53.5241C56.5214 52.8869 56.1298 52.3063 55.6427 51.8113C55.1522 51.3162 54.5706 50.9207 53.9299 50.6466C53.2666 50.36 52.551 50.2143 51.8284 50.2188C51.1091 50.2137 50.3967 50.3594 49.7372 50.6466C49.0983 50.924 48.5173 51.3191 48.0245 51.8113C47.5331 52.3028 47.1409 52.8843 46.8694 53.5241C46.5897 54.1786 46.4474 54.8836 46.4511 55.5953C46.4474 56.3071 46.5897 57.012 46.8694 57.6666C47.1394 58.3041 47.5319 58.8825 48.0245 59.369C48.5195 59.8562 49.1001 60.2478 49.7372 60.5241C50.3967 60.8113 51.1091 60.9571 51.8284 60.952C52.3168 60.9542 52.8031 60.8872 53.2727 60.7528C53.7288 60.621 54.167 60.4337 54.5775 60.1952L53.0831 58.742L54.9139 56.9098L56.3891 58.4234C56.9399 57.5834 57.2309 56.5998 57.2256 55.5953Z" fill="white"/>
<path d="M40.6831 19.7242L39.1738 18.2192L14.5006 42.9624L16.0099 44.4674L40.6831 19.7242Z" fill="white"/>
</g>
<defs>
<clipPath id="clip0">
<path d="M0 0H60.233V64H0V0Z" fill="white"/>
</clipPath>
</defs>
</svg>
