<svg width="46" height="48" viewBox="0 0 46 48" fill="none" xmlns="http://www.w3.org/2000/svg">
<g clip-path="url(#clip0)">
<path d="M8.51403 8.52882C8.51907 9.00644 8.415 9.47891 8.20976 9.91021C8.01294 10.3237 7.73639 10.6943 7.39598 11.0006C7.05221 11.3076 6.65456 11.5482 6.22316 11.7104C5.77728 11.8801 5.30393 11.9662 4.82683 11.9643L0 11.9494V-0.000147017H4.30183C4.79179 -0.00470857 5.27902 0.0734722 5.74296 0.231099C6.16981 0.375873 6.56346 0.60439 6.90085 0.90326C7.23249 1.20141 7.49495 1.56847 7.66982 1.97872C7.85969 2.43006 7.95388 2.91587 7.94643 3.40547C7.94603 3.85561 7.84391 4.29985 7.64769 4.70498C7.4592 5.10895 7.18975 5.46992 6.85604 5.7655C7.11168 5.89272 7.34592 6.05903 7.55033 6.25841C7.75309 6.45569 7.92888 6.67891 8.07312 6.92228C8.2169 7.16454 8.32742 7.42504 8.40173 7.69678C8.47627 7.96784 8.51405 8.2477 8.51403 8.52882ZM5.66108 3.45028C5.66738 3.19153 5.6104 2.93516 5.49512 2.70343C5.38846 2.49833 5.23723 2.31969 5.05254 2.18064C4.86187 2.03803 4.64659 1.9317 4.41745 1.86697C4.17474 1.79676 3.92326 1.76155 3.6706 1.76241H2.31522V5.04853C2.56417 5.05848 2.78822 5.06346 2.98738 5.06346H3.67337C3.92505 5.06433 4.17589 5.03423 4.42022 4.97384C4.64765 4.91935 4.863 4.82312 5.05531 4.69004C5.24009 4.56135 5.39175 4.39073 5.49789 4.19214C5.61319 3.96229 5.66929 3.7073 5.66108 3.45028ZM6.10919 8.39439C6.11169 8.15781 6.06319 7.92346 5.96701 7.70729C5.87754 7.50469 5.74545 7.32373 5.57976 7.17676C5.4128 7.0309 5.22039 6.91706 5.01216 6.84095C4.78941 6.75973 4.55385 6.71925 4.31676 6.72146C3.97819 6.7115 3.6446 6.7091 3.31599 6.71427C2.98738 6.71943 2.65379 6.72183 2.31522 6.72146V10.0225H4.0479C4.29951 10.0222 4.5502 9.99211 4.79474 9.93289C5.03221 9.87805 5.25735 9.77936 5.45861 9.6419C5.65109 9.50943 5.81186 9.33599 5.9294 9.13404C6.05408 8.90795 6.11562 8.65246 6.10753 8.39439H6.10919Z" fill="#191819"/>
<path d="M45.1745 41.6966C45.1777 42.3806 45.0634 43.0601 44.8365 43.7054C44.6141 44.3349 44.2886 44.9231 43.8733 45.4458L45.0683 46.6258L43.6957 48L42.4709 46.7602C41.9553 47.1125 41.392 47.3892 40.798 47.5818C40.1757 47.7832 39.5252 47.8841 38.8711 47.8805C38.0321 47.8861 37.2007 47.7209 36.4276 47.3948C35.6831 47.0825 35.0045 46.632 34.4277 46.067C33.8554 45.505 33.3964 44.8383 33.0756 44.1031C32.7444 43.3444 32.5765 42.5245 32.5827 41.6966C32.5772 40.8669 32.7451 40.0451 33.0756 39.284C33.395 38.5458 33.8541 37.8763 34.4277 37.3124C35.005 36.7473 35.6841 36.2968 36.4292 35.9846C37.202 35.6587 38.033 35.4934 38.8717 35.4989C39.7126 35.4939 40.5459 35.6592 41.3213 35.9846C42.0694 36.2954 42.7514 36.746 43.3306 37.3124C43.9042 37.8763 44.3633 38.5458 44.6827 39.284C45.0128 40.0452 45.1803 40.867 45.1745 41.6966ZM42.919 41.6966C42.9218 41.1621 42.8125 40.6329 42.5981 40.1432C42.3909 39.6653 42.0972 39.2298 41.7318 38.8586C41.364 38.4873 40.9278 38.1907 40.4472 37.9851C39.9498 37.7701 39.413 37.6608 38.8711 37.6642C38.3316 37.6604 37.7974 37.7697 37.3027 37.9851C36.8236 38.1931 36.3878 38.4895 36.0182 38.8586C35.6496 39.2272 35.3555 39.6633 35.1518 40.1432C34.9421 40.6341 34.8353 41.1628 34.8382 41.6966C34.8353 42.2304 34.9421 42.7592 35.1518 43.2501C35.3544 43.7282 35.6487 44.162 36.0182 44.5269C36.3894 44.8922 36.8249 45.1859 37.3027 45.3932C37.7974 45.6086 38.3316 45.7179 38.8711 45.7141C39.2374 45.7158 39.6021 45.6655 39.9543 45.5647C40.2964 45.4658 40.6251 45.3254 40.933 45.1465L39.8121 44.0567L41.1852 42.6825L42.2917 43.8177C42.7048 43.1877 42.923 42.4499 42.919 41.6966Z" fill="#191819"/>
<path d="M30.5123 14.7933L29.3804 13.6645L10.8755 32.2218L12.0074 33.3506L30.5123 14.7933Z" fill="#191819"/>
</g>
<defs>
<clipPath id="clip0">
<rect width="45.1747" height="48" fill="white"/>
</clipPath>
</defs>
</svg>
