<svg width="24" height="24" viewBox="0 0 24 24" fill="none" xmlns="http://www.w3.org/2000/svg">
<path fill-rule="evenodd" clip-rule="evenodd" d="M9.72654 2.26757C5.61839 3.22339 2.48295 6.71319 2.05698 11.0002H6.65056C6.88907 7.86082 7.95472 4.84914 9.72654 2.26757ZM14.2733 2.26757C16.0452 4.84914 17.1108 7.86082 17.3493 11.0002H21.9429C21.5169 6.71319 18.3815 3.22339 14.2733 2.26757ZM15.3428 11.0002C15.0788 7.91714 13.9158 4.97922 11.9999 2.55149C10.0841 4.97922 8.92112 7.91714 8.65706 11.0002H15.3428ZM8.65706 13.0002H15.3428C15.0788 16.0832 13.9158 19.0211 11.9999 21.4489C10.0841 19.0211 8.92112 16.0832 8.65706 13.0002ZM6.65056 13.0002H2.05698C2.48295 17.2872 5.61839 20.777 9.72654 21.7328C7.95472 19.1512 6.88907 16.1395 6.65056 13.0002ZM14.2733 21.7328C16.0452 19.1512 17.1108 16.1395 17.3493 13.0002H21.9429C21.5169 17.2872 18.3815 20.777 14.2733 21.7328ZM11.9999 23.9925C18.6231 23.9925 23.9923 18.6234 23.9923 12.0002C23.9923 5.37698 18.6231 0.0078125 11.9999 0.0078125C5.37673 0.0078125 0.00756836 5.37698 0.00756836 12.0002C0.00756836 18.6234 5.37673 23.9925 11.9999 23.9925Z" fill="#FF6768"/>
</svg>
