<svg width="24" height="24" viewBox="0 0 24 24" fill="none" xmlns="http://www.w3.org/2000/svg">
<path fill-rule="evenodd" clip-rule="evenodd" d="M1.01685 0.0170898C0.464561 0.0170898 0.0168457 0.464805 0.0168457 1.01709V9.55946C0.0168457 10.1117 0.464561 10.5595 1.01685 10.5595H9.55922C10.1115 10.5595 10.5592 10.1117 10.5592 9.55946V1.01709C10.5592 0.464805 10.1115 0.0170898 9.55922 0.0170898H1.01685ZM2.01685 8.55946V2.01709H8.55922V8.55946H2.01685ZM14.4406 0.0170898C13.8883 0.0170898 13.4406 0.464805 13.4406 1.01709V9.55946C13.4406 10.1117 13.8883 10.5595 14.4406 10.5595H22.9829C23.5352 10.5595 23.9829 10.1117 23.9829 9.55946V1.01709C23.9829 0.464805 23.5352 0.0170898 22.9829 0.0170898H14.4406ZM15.4406 8.55946V2.01709H21.9829V8.55946H15.4406ZM13.4406 14.4408C13.4406 13.8885 13.8883 13.4408 14.4406 13.4408H22.9829C23.5352 13.4408 23.9829 13.8885 23.9829 14.4408V22.9832C23.9829 23.5355 23.5352 23.9832 22.9829 23.9832H14.4406C13.8883 23.9832 13.4406 23.5355 13.4406 22.9832V14.4408ZM15.4406 15.4408V21.9832H21.9829V15.4408H15.4406ZM1.01685 13.4408C0.464561 13.4408 0.0168457 13.8885 0.0168457 14.4408V22.9832C0.0168457 23.5355 0.464561 23.9832 1.01685 23.9832H9.55922C10.1115 23.9832 10.5592 23.5355 10.5592 22.9832V14.4408C10.5592 13.8885 10.1115 13.4408 9.55922 13.4408H1.01685ZM2.01685 21.9832V15.4408H8.55922V21.9832H2.01685Z" fill="#FF6768"/>
</svg>
