<svg width="32" height="32" viewBox="0 0 32 32" fill="none" xmlns="http://www.w3.org/2000/svg">
<path d="M32 16C32 24.8364 24.8364 32 16 32C7.16356 32 0 24.8364 0 16C0 7.16356 7.16356 0 16 0C24.8364 0 32 7.16356 32 16Z" fill="#FFCC4D"/>
<path d="M16.0004 19.4213C13.3639 19.4213 11.6137 19.1137 9.45014 18.6933C8.95503 18.5991 7.99414 18.6933 7.99414 20.1493C7.99414 23.0604 11.339 26.6995 16.0004 26.6995C20.6617 26.6995 24.0066 23.0604 24.0066 20.1493C24.0066 18.6933 23.0448 18.5982 22.5506 18.6933C20.387 19.1137 18.6377 19.4213 16.0004 19.4213Z" fill="#664500"/>
<path d="M14.7997 2.91647C14.0361 0.755577 11.6672 -0.378645 9.50547 0.383133C8.19347 0.845355 7.26458 1.90402 6.9028 3.14224C5.84413 2.40535 4.45747 2.16447 3.14724 2.62669C0.987243 3.38935 -0.148757 5.76002 0.614799 7.92091C0.723243 8.22669 0.867243 8.51024 1.03435 8.77247C2.76858 11.9565 7.77924 14.1947 10.813 14.2222C13.157 12.296 15.6539 7.40891 15.0068 3.84269C14.973 3.53335 14.9064 3.22224 14.7997 2.91647ZM17.1997 2.91647C17.9632 0.755577 20.333 -0.378645 22.4939 0.383133C23.8059 0.845355 24.7348 1.90402 25.0975 3.14224C26.1561 2.40535 27.5428 2.16447 28.853 2.62669C31.013 3.38935 32.1481 5.76002 31.3864 7.92091C31.277 8.22669 31.1339 8.51024 30.9659 8.77247C29.2317 11.9565 24.221 14.1947 21.1864 14.2222C18.8424 12.296 16.3464 7.40891 16.9935 3.84269C17.0264 3.53335 17.093 3.22224 17.1997 2.91647Z" fill="#DD2E44"/>
</svg>
