<svg width="32" height="33" viewBox="0 0 32 33" fill="none" xmlns="http://www.w3.org/2000/svg">
<path d="M2.40829 23.5664H9.65958V32.6305H2.40829V23.5664ZM22.3493 23.5664H29.6006V32.6305H22.3493V23.5664Z" fill="#FFDC5D"/>
<path d="M29.6006 26.0319C29.6006 26.0319 26.8814 27.8447 22.3493 26.9383V22.4062H29.6006V26.0319ZM2.40829 26.0319C2.40829 26.0319 5.12753 27.8447 9.65958 26.9383V22.4062H2.40829V26.0319Z" fill="#F9CA55"/>
<path d="M3.29935 16.8624H10.5506V24.1137H3.29935V16.8624ZM21.4484 16.4092H28.6997V23.6605H21.4484V16.4092Z" fill="#EF9645"/>
<path d="M0.0272272 10.7274C0.0272272 10.7274 0.0299466 9.61701 1.13939 9.61973C2.25065 9.62335 2.24703 10.7337 2.24703 10.7337L2.22981 15.8857C2.40656 15.8042 2.59146 15.7307 2.78544 15.6673L2.8081 8.51662C2.8081 8.51662 2.81172 7.40627 3.92026 7.4099C5.02971 7.41262 5.02699 8.52388 5.02699 8.52388L5.00796 15.2494C5.18833 15.2331 5.37415 15.2204 5.56087 15.2114L5.58625 7.41443C5.58625 7.41443 5.58896 6.30408 6.69932 6.30861C7.80967 6.31223 7.80514 7.42259 7.80514 7.42259L7.77976 15.2177C7.97011 15.2286 8.1532 15.2476 8.3363 15.2649L8.35896 7.97822C8.35896 7.97822 8.36258 6.86786 9.47112 6.87239C10.5806 6.87511 10.576 7.98456 10.576 7.98456L10.5543 15.69L10.5516 16.3072V16.861C7.22141 16.8529 4.99255 19.6183 4.98258 22.3938C4.98258 22.9485 5.5373 22.9521 5.5373 22.9521C5.54636 19.6183 7.77341 17.4094 11.1045 17.4194L12.7369 13.6233C12.7369 13.6233 13.095 12.5728 14.1473 12.9327C15.1969 13.288 14.8407 14.3403 14.8407 14.3403L14.0313 17.1547C13.7104 18.2732 13.4104 19.399 13.2527 20.5483C12.8013 23.7969 10.0068 26.295 6.63678 26.2859C2.96128 26.2705 -0.0117484 23.2811 3.4906e-05 19.6057C0.000941317 19.4117 0.0127247 19.2268 0.0308529 19.0527L0.00184773 19.0491L0.0272272 10.7274ZM31.9728 10.7274C31.9728 10.7274 31.9701 9.61701 30.8606 9.61973C29.7493 9.62335 29.7521 10.7337 29.7521 10.7337L29.7693 15.8857C29.5934 15.8042 29.4076 15.7307 29.2146 15.6673L29.1919 8.51662C29.1919 8.51662 29.1883 7.40627 28.0797 7.4099C26.9694 7.41262 26.9721 8.52388 26.9721 8.52388L26.992 15.2494C26.8126 15.2331 26.6268 15.2204 26.4391 15.2114L26.4147 7.41443C26.4147 7.41443 26.411 6.30408 25.3007 6.30861C24.1903 6.31223 24.1949 7.42259 24.1949 7.42259L24.2202 15.2177C24.0299 15.2286 23.8468 15.2476 23.6637 15.2649L23.641 7.97822C23.641 7.97822 23.6365 6.86786 22.528 6.87239C21.4185 6.87511 21.4231 7.98456 21.4231 7.98456L21.4448 15.69L21.4475 16.3072V16.861C24.7777 16.8529 27.0065 19.6183 27.0174 22.3938C27.0174 22.9485 26.4627 22.9521 26.4627 22.9521C26.4527 19.6183 24.2257 17.4094 20.8955 17.4194L19.2631 13.6233C19.2631 13.6233 18.906 12.5728 17.8527 12.9327C16.804 13.288 17.1593 14.3403 17.1593 14.3403L17.9687 17.1547C18.2896 18.2732 18.5896 19.399 18.7473 20.5483C19.1987 23.7969 21.9923 26.295 25.3632 26.2859C29.0387 26.2705 32.0127 23.2811 32 19.6057C31.9991 19.4117 31.9873 19.2268 31.9691 19.0527L31.9982 19.0491L31.9728 10.7274Z" fill="#FFDC5D"/>
<path d="M21.0269 5.8536C20.8339 5.8536 20.6381 5.79196 20.474 5.66507C20.077 5.3587 20.0045 4.78947 20.3109 4.39337L23.0111 0.899159C23.3147 0.503964 23.8857 0.427826 24.2818 0.736005C24.6788 1.04237 24.7514 1.6116 24.445 2.0077L21.7448 5.50191C21.5671 5.73305 21.2988 5.8536 21.0269 5.8536ZM11.0383 5.8536C10.7673 5.8536 10.499 5.73214 10.3204 5.50101L7.6202 2.0077C7.31474 1.6116 7.38816 1.04237 7.78426 0.736005C8.18036 0.430545 8.74868 0.503058 9.05595 0.899159L11.7562 4.39337C12.0616 4.78947 11.9891 5.3587 11.593 5.66507C11.4271 5.79287 11.2322 5.8536 11.0383 5.8536ZM16.0045 5.43846C15.5042 5.43846 15.0981 5.03239 15.0981 4.53205V0.906411C15.0981 0.406072 15.5042 0 16.0045 0C16.5057 0 16.9109 0.406072 16.9109 0.906411V4.53205C16.9109 5.03239 16.5057 5.43846 16.0045 5.43846Z" fill="#5DADEC"/>
</svg>
