<svg width="32" height="32" viewBox="0 0 32 32" fill="none" xmlns="http://www.w3.org/2000/svg">
<path d="M10.3337 6.13916C10.2342 6.23871 10.1586 6.35871 10.0955 6.49026L10.0884 6.48315L0.118948 28.941L0.128725 28.9508C-0.0561571 29.309 0.253166 30.0379 0.886922 30.6725C1.52068 31.3063 2.24954 31.6156 2.60775 31.4307L2.61664 31.4396L25.0745 21.4693L25.0674 21.4613C25.1981 21.3991 25.3181 21.3235 25.4185 21.2222C26.8069 19.8338 24.5554 15.3317 20.3911 11.1665C16.2251 7.00135 11.723 4.75076 10.3337 6.13916Z" fill="#DD2E44"/>
<path d="M11.555 10.1499L0.369606 28.3768L0.118948 28.9413L0.128725 28.951C-0.0561571 29.3092 0.253166 30.0381 0.886922 30.6728C1.09314 30.879 1.30735 31.0354 1.51712 31.1678L15.1104 14.5942L11.555 10.1499Z" fill="#EA596E"/>
<path d="M20.4544 11.0975C24.6054 15.2502 26.9102 19.6767 25.6 20.9851C24.2908 22.2953 19.8642 19.9914 15.7106 15.8404C11.5587 11.6877 9.25482 7.25938 10.5641 5.95009C11.8743 4.6408 16.3008 6.94473 20.4544 11.0975Z" fill="#A0041E"/>
<path d="M16.5239 11.58C16.347 11.7232 16.1159 11.7978 15.8714 11.7712C15.0999 11.6876 14.451 11.4192 13.9968 10.9952C13.516 10.5463 13.2786 9.94366 13.3435 9.34012C13.4573 8.2806 14.5204 7.30819 16.3328 7.50374C17.0376 7.57929 17.3523 7.35264 17.3629 7.24419C17.3754 7.13664 17.1167 6.84776 16.4119 6.77132C15.6403 6.68777 14.9915 6.41933 14.5364 5.99535C14.0555 5.54647 13.8173 4.94383 13.8831 4.34029C13.9986 3.28077 15.0608 2.30836 16.8714 2.5048C17.3852 2.55991 17.6563 2.45414 17.7709 2.38569C17.8625 2.3297 17.8989 2.27636 17.9025 2.24525C17.9132 2.1377 17.658 1.84882 16.9514 1.77238C16.4634 1.71905 16.1097 1.28173 16.1639 0.792859C16.2163 0.304876 16.6528 -0.0480007 17.1425 0.00533079C18.9531 0.199991 19.7851 1.37595 19.6704 2.43636C19.5549 3.49766 18.4927 4.46829 16.6803 4.27363C16.1665 4.21763 15.8981 4.32429 15.7826 4.39274C15.691 4.44785 15.6537 4.50207 15.6501 4.53229C15.6386 4.64073 15.8954 4.92872 16.6021 5.00516C18.4127 5.20071 19.2447 6.37578 19.13 7.43619C19.0153 8.49571 17.9532 9.46812 16.1417 9.27168C15.6279 9.21657 15.3577 9.32323 15.2421 9.39079C15.1497 9.44767 15.1141 9.50101 15.1106 9.53123C15.099 9.63878 15.3559 9.92766 16.0617 10.0041C16.5488 10.0574 16.9034 10.4956 16.8492 10.9836C16.8243 11.2272 16.7007 11.4378 16.5239 11.58Z" fill="#AA8DD8"/>
<path d="M27.2533 19.8005C29.007 19.3054 30.2167 20.0876 30.5047 21.1142C30.7927 22.1399 30.1687 23.4385 28.4159 23.9319C27.7315 24.1239 27.5262 24.451 27.5537 24.555C27.5839 24.6598 27.9315 24.8323 28.6141 24.6394C30.367 24.1461 31.5767 24.9283 31.8647 25.954C32.1544 26.9806 31.5287 28.2775 29.775 28.7717C29.0914 28.9637 28.8852 29.2917 28.9154 29.3957C28.9448 29.4997 29.2914 29.6721 29.975 29.4801C30.4461 29.3477 30.9385 29.6223 31.0709 30.0943C31.2025 30.5672 30.9278 31.0578 30.4549 31.1912C28.703 31.6845 27.4924 30.9041 27.2026 29.8766C26.9146 28.8508 27.5395 27.554 29.2941 27.0598C29.9785 26.8669 30.1838 26.5407 30.1536 26.4358C30.1252 26.3318 29.7785 26.1585 29.0959 26.3504C27.3413 26.8447 26.1324 26.0642 25.8435 25.0358C25.5547 24.0101 26.1795 22.7132 27.9333 22.2181C28.6159 22.027 28.8212 21.6982 28.7928 21.5951C28.7626 21.4902 28.4168 21.3177 27.7333 21.5097C27.2604 21.6431 26.7706 21.3675 26.6373 20.8955C26.5049 20.4244 26.7804 19.9338 27.2533 19.8005Z" fill="#77B255"/>
<path d="M20.4448 17.4029C20.1835 17.4029 19.9257 17.2882 19.7497 17.0696C19.443 16.6856 19.5061 16.1265 19.8884 15.8198C20.0821 15.6643 24.7042 12.0342 31.2364 12.9684C31.7226 13.0377 32.0604 13.4875 31.991 13.9737C31.9217 14.459 31.4755 14.8003 30.9849 14.7274C25.2135 13.9079 21.0412 17.1754 21.0003 17.2082C20.835 17.3398 20.6394 17.4029 20.4448 17.4029Z" fill="#AA8DD8"/>
<path d="M5.11464 13.7052C5.03019 13.7052 4.94397 13.6928 4.85864 13.6679C4.38844 13.5266 4.12178 13.0315 4.26311 12.5613C5.27019 9.20762 6.18304 3.8558 5.0613 2.4603C4.93597 2.30208 4.74665 2.14653 4.31289 2.17942C3.47914 2.24342 3.55824 4.00247 3.55913 4.02024C3.59647 4.51 3.22848 4.93666 2.73961 4.9731C2.24273 5.00332 1.82319 4.64244 1.78675 4.15268C1.6952 2.92695 2.07652 0.56614 4.17956 0.407034C5.11819 0.335925 5.89772 0.662136 6.44792 1.34656C8.55541 3.96958 6.41592 11.5738 5.96616 13.0724C5.85061 13.4573 5.49684 13.7052 5.11464 13.7052Z" fill="#77B255"/>
<path d="M22.6658 9.26081C23.4022 9.26081 23.9991 8.66388 23.9991 7.92753C23.9991 7.19117 23.4022 6.59424 22.6658 6.59424C21.9295 6.59424 21.3325 7.19117 21.3325 7.92753C21.3325 8.66388 21.9295 9.26081 22.6658 9.26081Z" fill="#5C913B"/>
<path d="M1.77772 17.2605C2.75952 17.2605 3.55543 16.4646 3.55543 15.4828C3.55543 14.501 2.75952 13.7051 1.77772 13.7051C0.795911 13.7051 0 14.501 0 15.4828C0 16.4646 0.795911 17.2605 1.77772 17.2605Z" fill="#9266CC"/>
<path d="M28.888 18.1495C29.6243 18.1495 30.2213 17.5526 30.2213 16.8162C30.2213 16.0798 29.6243 15.4829 28.888 15.4829C28.1516 15.4829 27.5547 16.0798 27.5547 16.8162C27.5547 17.5526 28.1516 18.1495 28.888 18.1495Z" fill="#5C913B"/>
<path d="M20.8882 28.816C21.6246 28.816 22.2215 28.2191 22.2215 27.4827C22.2215 26.7463 21.6246 26.1494 20.8882 26.1494C20.1519 26.1494 19.5549 26.7463 19.5549 27.4827C19.5549 28.2191 20.1519 28.816 20.8882 28.816Z" fill="#5C913B"/>
<path d="M24.8881 4.81666C25.8699 4.81666 26.6658 4.02075 26.6658 3.03895C26.6658 2.05714 25.8699 1.26123 24.8881 1.26123C23.9063 1.26123 23.1104 2.05714 23.1104 3.03895C23.1104 4.02075 23.9063 4.81666 24.8881 4.81666Z" fill="#FFCC4D"/>
<path d="M28.888 8.37214C29.6243 8.37214 30.2213 7.77521 30.2213 7.03885C30.2213 6.3025 29.6243 5.70557 28.888 5.70557C28.1516 5.70557 27.5547 6.3025 27.5547 7.03885C27.5547 7.77521 28.1516 8.37214 28.888 8.37214Z" fill="#FFCC4D"/>
<path d="M26.2212 11.9273C26.9576 11.9273 27.5545 11.3304 27.5545 10.594C27.5545 9.85768 26.9576 9.26074 26.2212 9.26074C25.4849 9.26074 24.8879 9.85768 24.8879 10.594C24.8879 11.3304 25.4849 11.9273 26.2212 11.9273Z" fill="#FFCC4D"/>
<path d="M6.6663 21.7052C7.40265 21.7052 7.99958 21.1082 7.99958 20.3719C7.99958 19.6355 7.40265 19.0386 6.6663 19.0386C5.92994 19.0386 5.33301 19.6355 5.33301 20.3719C5.33301 21.1082 5.92994 21.7052 6.6663 21.7052Z" fill="#FFCC4D"/>
</svg>
