<svg width="32" height="32" viewBox="0 0 32 32" fill="none" xmlns="http://www.w3.org/2000/svg">
<path d="M10.6792 28.4779C7.11945 28.4779 3.52236 24.8808 3.52236 21.3211C3.52236 20.8289 3.16194 20.4312 2.66981 20.4312C2.17768 20.4312 1.74251 20.8289 1.74251 21.3211C1.74251 26.6606 5.33959 30.2577 10.6792 30.2577C11.1713 30.2577 11.5691 29.8226 11.5691 29.3304C11.5691 28.8383 11.1713 28.4779 10.6792 28.4779Z" fill="#5DADEC"/>
<path d="M6.22949 30.2198C3.55971 30.2198 1.77985 28.44 1.77985 25.7702C1.77985 25.2781 1.38206 24.8803 0.889927 24.8803C0.397797 24.8803 0 25.2781 0 25.7702C0 29.3299 2.66978 31.9997 6.22949 31.9997C6.72162 31.9997 7.11941 31.6019 7.11941 31.1098C7.11941 30.6176 6.72162 30.2198 6.22949 30.2198ZM21.3582 1.74219C20.867 1.74219 20.4683 2.14087 20.4683 2.63211C20.4683 3.12335 20.867 3.52204 21.3582 3.52204C24.918 3.52204 28.4777 6.71599 28.4777 10.6415C28.4777 11.1327 28.8763 11.5314 29.3676 11.5314C29.8588 11.5314 30.2575 11.1327 30.2575 10.6415C30.2575 5.7344 26.6978 1.74219 21.3582 1.74219Z" fill="#5DADEC"/>
<path d="M25.8079 0C25.3167 0 24.918 0.36131 24.918 0.85255C24.918 1.34379 25.3167 1.77985 25.8079 1.77985C28.4777 1.77985 30.2202 3.75994 30.2202 6.19211C30.2202 6.68335 30.6553 7.08204 31.1475 7.08204C31.6396 7.08204 32 6.68335 32 6.19211C32 2.77746 29.3676 0 25.8079 0Z" fill="#5DADEC"/>
<path d="M4.32591 8.1031C5.16244 7.51842 6.42346 7.63055 7.17456 8.25083L6.31311 6.9987C5.61986 6.00999 5.86815 4.9403 6.85775 4.24616C7.84735 3.55468 10.6515 5.41374 10.6515 5.41374C9.95202 4.41524 10.0828 3.14977 11.0813 2.44939C12.0798 1.75169 13.4574 1.99286 14.1569 2.99314L23.43 16.0929L22.2481 27.5507L12.3851 23.9536L3.78216 11.1983C3.07645 10.1935 3.32029 8.80792 4.32591 8.1031Z" fill="#EF9645"/>
<path d="M2.39822 15.3903C2.39822 15.3903 1.39082 13.9219 2.86009 12.9154C4.32758 11.9089 5.33409 13.3764 5.33409 13.3764L10.0071 20.1914C10.1682 19.9227 10.3444 19.6575 10.541 19.3958L4.05526 9.93857C4.05526 9.93857 3.04875 8.47108 4.51713 7.46457C5.98462 6.45807 6.99113 7.92556 6.99113 7.92556L13.0916 16.8222C13.3185 16.637 13.5508 16.4511 13.7902 16.2686L6.71792 5.95348C6.71792 5.95348 5.71141 4.48599 7.17979 3.47948C8.64728 2.47297 9.65379 3.94046 9.65379 3.94046L16.726 14.2538C16.9859 14.0945 17.2431 13.9566 17.5012 13.8106L10.8908 4.17095C10.8908 4.17095 9.88428 2.70346 11.3518 1.69696C12.8193 0.69045 13.8258 2.15794 13.8258 2.15794L20.8153 12.3512L21.8778 13.9014C17.4745 16.9218 17.0553 22.604 19.5711 26.2732C20.0739 27.0074 20.8081 26.5046 20.8081 26.5046C17.7886 22.1003 18.7106 17.1514 23.1148 14.1319L21.8164 7.63366C21.8164 7.63366 21.3314 5.92144 23.0427 5.43554C24.755 4.95053 25.2409 6.66275 25.2409 6.66275L26.7404 11.1159C27.3349 12.8816 27.9676 14.6409 28.805 16.3051C31.1696 21.0039 29.7572 26.8436 25.2987 29.9023C20.4353 33.2369 13.7866 31.9972 10.4512 27.1346L2.39822 15.3903Z" fill="#FFDC5D"/>
</svg>
