<svg width="32" height="35" viewBox="0 0 32 35" fill="none" xmlns="http://www.w3.org/2000/svg">
<path d="M17.1023 33.1772C19.7584 32.036 21.4851 29.7114 22.5103 27.4702C24.1134 23.966 29.7754 22.5172 31.182 21.5188C33.1348 20.1333 31.3411 17.3286 28.4377 17.7924C25.3092 18.2926 24.5542 19.6542 22.6684 20.4792C21.7064 20.8989 21.027 20.7637 20.8986 18.9882C20.8047 17.686 22.4854 7.45439 22.9971 2.73719C23.1724 1.12263 22.4998 0.202762 21.2005 0.0293285C19.7287 -0.167102 18.9669 0.633951 18.6555 2.10862C17.8794 5.78042 16.649 12.9784 16.1326 13.3847C13.3576 15.1257 9.65803 17.4034 6.35129 12.9794C6.35129 12.9794 4.76931 4.68041 4.52305 3.00549C4.09665 0.105984 0.181464 0.629159 0.502459 3.65227C0.803333 6.50003 1.73757 13.2199 0.919275 15.6067C0.200627 17.7042 -1.06802 24.9032 1.72703 29.2869C4.48472 33.6122 11.8456 35.4357 17.1023 33.1772Z" fill="#FFDC5D"/>
<path d="M7.21742 21.5314C8.04626 25.5137 12.8574 25.0662 12.5536 21.2727C12.3074 18.1873 11.3702 12.7965 11.0655 11.4492C10.4446 8.69252 5.6431 9.3048 6.03596 12.5598C6.29084 14.6726 6.57255 18.4316 7.21742 21.5314Z" fill="#EF9645"/>
<path d="M8.10279 21.1262C8.86456 24.431 12.3466 23.5121 12.1694 20.4229C11.9921 17.3327 11.2773 12.6241 11.0588 11.2596C10.5472 8.07267 6.45374 9.50709 6.78623 11.8547C7.11873 14.2023 7.53458 18.6617 8.10279 21.1262Z" fill="#FFDC5D"/>
<path d="M10.9506 22.3991C11.0167 27.1354 16.2983 26.8777 16.7123 23.3324C17.0716 20.2585 16.3108 13.4821 16.2542 12.1004C16.1479 9.52954 11.4489 9.51133 11.2946 12.431C11.17 14.7996 10.9152 19.8704 10.9506 22.3991Z" fill="#EF9645"/>
<path d="M11.8484 22.5392C11.7133 25.4847 15.6946 25.8181 15.9831 22.7375C16.2724 19.6569 16.2034 13.0703 16.1804 11.6895C16.1412 9.28637 12.1234 9.37165 12.0104 12.3229C11.9203 14.6916 11.9634 20.0124 11.8484 22.5392Z" fill="#FFDC5D"/>
</svg>
