<svg width="24" height="24" viewBox="0 0 24 24" fill="none" xmlns="http://www.w3.org/2000/svg">
<path fill-rule="evenodd" clip-rule="evenodd" d="M9.63563 2.26203C5.57372 3.2156 2.47482 6.66825 2.04983 10.9091H6.59322C6.83058 7.80123 7.88441 4.81964 9.63563 2.26203ZM14.1826 2.26203C15.9338 4.81964 16.9876 7.80123 17.225 10.9091H21.7683C21.3434 6.66825 18.2445 3.2156 14.1826 2.26203ZM15.2184 10.9091C14.9554 7.85707 13.8043 4.94877 11.9091 2.54422C10.0139 4.94877 8.86281 7.85707 8.59979 10.9091H15.2184ZM8.59979 12.9091H15.2184C14.9554 15.9611 13.8043 18.8694 11.9091 21.274C10.0139 18.8694 8.86281 15.9611 8.59979 12.9091ZM6.59322 12.9091H2.04983C2.47482 17.1499 5.57372 20.6026 9.63563 21.5561C7.88441 18.9985 6.83058 16.017 6.59322 12.9091ZM14.1826 21.5561C15.9338 18.9985 16.9876 16.017 17.225 12.9091H21.7683C21.3434 17.1499 18.2445 20.6026 14.1826 21.5561ZM11.9091 23.8182C18.4863 23.8182 23.8182 18.4863 23.8182 11.9091C23.8182 5.33188 18.4863 0 11.9091 0C5.33188 0 0 5.33188 0 11.9091C0 18.4863 5.33188 23.8182 11.9091 23.8182Z" fill="black"/>
</svg>
