<svg width="24" height="24" viewBox="0 0 24 24" fill="none" xmlns="http://www.w3.org/2000/svg">
<path fill-rule="evenodd" clip-rule="evenodd" d="M1 0C0.447715 0 0 0.447715 0 1V9.4C0 9.95228 0.447715 10.4 1 10.4H9.4C9.95228 10.4 10.4 9.95228 10.4 9.4V1C10.4 0.447715 9.95228 0 9.4 0H1ZM2 8.4V2H8.4V8.4H2ZM14.2 0C13.6477 0 13.2 0.447715 13.2 1V9.4C13.2 9.95228 13.6477 10.4 14.2 10.4H22.6C23.1523 10.4 23.6 9.95228 23.6 9.4V1C23.6 0.447715 23.1523 0 22.6 0H14.2ZM15.2 8.4V2H21.6V8.4H15.2ZM13.2 14.2C13.2 13.6477 13.6477 13.2 14.2 13.2H22.6C23.1523 13.2 23.6 13.6477 23.6 14.2V22.6C23.6 23.1523 23.1523 23.6 22.6 23.6H14.2C13.6477 23.6 13.2 23.1523 13.2 22.6V14.2ZM15.2 15.2V21.6H21.6V15.2H15.2ZM1 13.2C0.447715 13.2 0 13.6477 0 14.2V22.6C0 23.1523 0.447715 23.6 1 23.6H9.4C9.95228 23.6 10.4 23.1523 10.4 22.6V14.2C10.4 13.6477 9.95228 13.2 9.4 13.2H1ZM2 21.6V15.2H8.4V21.6H2Z" fill="black"/>
</svg>
